<?xml version="1.0" encoding="UTF-8"?>
<svg width="29px" height="26px" viewBox="0 0 29 26" version="1.1" xmlns="http://www.w3.org/2000/svg" xmlns:xlink="http://www.w3.org/1999/xlink">
    <!-- Generator: Sketch 59.1 (86144) - https://sketch.com -->
    <title>Logo Black</title>
    <desc>Created with Sketch.</desc>
    <g id="Symbols" stroke="none" stroke-width="1" fill="none" fill-rule="evenodd">
        <g id="Artboard" transform="translate(0.000000, -1.000000)" fill="#000000">
            <path d="M4.49691205,14 C3.39234255,14 2.49691205,13.1045695 2.49691205,12 C2.49691205,11.4086541 2.75860333,10.847623 3.21168753,10.4676169 L13.2147755,2.07793025 C13.9581665,1.45444103 15.0418335,1.45444103 15.7852245,2.07793025 L25.7883125,10.4676169 C26.6346243,11.1774268 26.7452809,12.4389127 26.035471,13.2852245 C25.6554649,13.7383087 25.0944338,14 24.503088,14 L23,14 L23,14 L22.999,16.2743133 L25.1097265,15.2194531 C25.3567158,15.0959584 25.6570523,15.1960706 25.7805469,15.4430599 C25.9040416,15.6900491 25.8039294,15.9903856 25.5569401,16.1138803 L22.999,17.3923133 L22.9989775,17.8333344 L22.9989775,17.8333344 L28,17.8333333 C28.2761424,17.8333333 28.5,18.057191 28.5,18.3333333 C28.5,18.6094757 28.2761424,18.8333333 28,18.8333333 L22.999,18.8333133 L22.999,19.2743133 L25.5569401,20.5527864 C25.7764861,20.6625594 25.8799811,20.9120593 25.8135353,21.139617 L25.7805469,21.2236068 C25.6570523,21.470596 25.3567158,21.5707082 25.1097265,21.4472136 L25.1097265,21.4472136 L22.999,20.3913133 L23,25 C23,26.1045695 22.1045695,27 21,27 L8,27 C6.8954305,27 6,26.1045695 6,25 L5.999,20.3923133 L3.89027346,21.4472136 C3.64328422,21.5707082 3.3429477,21.470596 3.21945307,21.2236068 C3.09595845,20.9766175 3.19607062,20.676281 3.44305987,20.5527864 L5.999,19.2743133 L5.999,18.8333133 L1,18.8333333 C0.754540111,18.8333333 0.55039163,18.6564582 0.508055669,18.423209 L0.5,18.3333333 C0.5,18.057191 0.723857625,17.8333333 1,17.8333333 L1,17.8333333 L5.999,17.8333133 L5.999,17.3913133 L3.44305987,16.1138803 C3.22351387,16.0041073 3.12001889,15.7546073 3.18646468,15.5270497 L3.21945307,15.4430599 C3.3429477,15.1960706 3.64328422,15.0959584 3.89027346,15.2194531 L3.89027346,15.2194531 L5.999,16.2743133 L6,14 L4.49691205,14 Z M8,16.2825219 C8,13.8354025 11.3109844,11.578127 14.5135699,14.1129108 C17.7153322,11.578127 21,13.8425079 21,16.2825219 C21,18.7225359 14.5135699,24.1428571 14.5135699,24.1428571 C14.5135699,24.1428571 8,18.7296413 8,16.2825219 Z" id="Logo-Black"></path>
        </g>
    </g>
</svg>