<?xml version="1.0" encoding="UTF-8"?>
<svg width="53px" height="44px" viewBox="0 0 53 44" version="1.1" xmlns="http://www.w3.org/2000/svg" xmlns:xlink="http://www.w3.org/1999/xlink">
    <!-- Generator: Sketch 59.1 (86144) - https://sketch.com -->
    <title>final logo flattened</title>
    <desc>Created with Sketch.</desc>
    <g id="Symbols" stroke="none" stroke-width="1" fill="none" fill-rule="evenodd">
        <g id="logo-foreverHomes" fill="#FFFFFF" fill-rule="nonzero">
            <path d="M27.5436966,1.08351795 L50.2123832,16.8650479 C50.665644,17.1805999 50.7772791,17.8038458 50.4617271,18.2571067 C50.274767,18.5256573 49.9682466,18.6857492 49.6410258,18.6857492 L41.0862246,18.6856844 C41.1285341,18.8476103 41.1510579,19.0175347 41.1510579,19.1927199 L41.151,26.8862193 L47.3901689,25.1783761 C47.9228371,25.0324889 48.4729149,25.3460369 48.618802,25.8787051 C48.7646892,26.4113733 48.4511412,26.9614511 47.918473,27.1073382 L41.151,28.9602193 L41.151,29.7142193 L52,29.7142857 C52.5522847,29.7142857 53,30.162001 53,30.7142857 C53,31.2665705 52.5522847,31.7142857 52,31.7142857 L41.151,31.7142193 L41.151,32.4672193 L47.918473,34.3212332 C48.4130935,34.4566999 48.7187787,34.9406778 48.643119,35.4356103 L48.618802,35.5498663 C48.4729149,36.0825345 47.9228371,36.3960825 47.3901689,36.2501953 L47.3901689,36.2501953 L41.151,34.5412193 L41.1510579,42.3024788 C41.1510579,42.8547636 40.7033426,43.3024788 40.1510579,43.3024788 L13.7936204,43.3024788 C13.2413356,43.3024788 12.7936204,42.8547636 12.7936204,42.3024788 L12.793,34.2822193 L5.60983105,36.2501953 C5.07716287,36.3960825 4.5270851,36.0825345 4.38119796,35.5498663 C4.23531082,35.0171981 4.5488588,34.4671204 5.08152697,34.3212332 L12.793,32.2092193 L12.793,31.7142193 L1,31.7142857 C0.487164161,31.7142857 0.0644928393,31.3282455 0.00672773133,30.8309068 L0,30.7142857 C0,30.162001 0.44771525,29.7142857 1,29.7142857 L1,29.7142857 L12.793,29.7142193 L12.793,29.2182193 L5.08152697,27.1073382 C4.58690652,26.9718716 4.28122135,26.4878936 4.35688102,25.9929611 L4.38119796,25.8787051 C4.5270851,25.3460369 5.07716287,25.0324889 5.60983105,25.1783761 L5.60983105,25.1783761 L12.793,27.1452193 L12.7936204,19.1927199 C12.7936204,19.0175347 12.8161441,18.8476103 12.8584537,18.6856844 L4.30365251,18.6857492 C3.75136776,18.6857492 3.30365251,18.238034 3.30365251,17.6857492 C3.30365251,17.3585283 3.46374446,17.052008 3.73229507,16.8650479 L13,10.4122193 L13,5 C13,4.44771525 13.4477153,4 14,4 L17,4 C17.5522847,4 18,4.44771525 18,5 L18,6.93121928 L26.4009817,1.08351795 C26.744376,0.844453061 27.2003023,0.844453061 27.5436966,1.08351795 Z M16.4724204,27.4971251 C16.4724204,31.4912084 26.9943411,40.3264271 26.9943411,40.3264271 L27.7930216,39.6327863 C30.2406857,37.47143 37.4724204,30.8056521 37.4724204,27.4971251 C37.4724204,23.514639 32.1664186,19.8188137 26.9943411,23.955979 C21.8209337,19.8188137 16.4724204,23.5030419 16.4724204,27.4971251 Z" id="final-logo-flattened"></path>
        </g>
    </g>
</svg>