<?xml version="1.0" encoding="UTF-8"?>
<svg width="31px" height="26px" viewBox="0 0 31 26" version="1.1" xmlns="http://www.w3.org/2000/svg" xmlns:xlink="http://www.w3.org/1999/xlink">
    <!-- Generator: Sketch 59.1 (86144) - https://sketch.com -->
    <title>logo-white-flattened</title>
    <desc>Created with Sketch.</desc>
    <g id="Symbols" stroke="none" stroke-width="1" fill="none" fill-rule="evenodd">
        <g id="Artboard" transform="translate(-1.000000, -2.000000)" fill="#FFFFFF">
            <path d="M6.16347578,12.3896867 C5.0220873,12.3896867 4.09680912,11.4942562 4.09680912,10.3896867 C4.09680912,9.79834081 4.36722344,9.23730968 4.83541044,8.85730358 L15.1719347,2.46761691 C15.9401053,1.8441277 17.0598947,1.8441277 17.8280653,2.46761691 L28.1645896,8.85730358 C29.0391118,9.56711349 29.153457,10.8285994 28.4199867,11.6749112 C28.0273138,12.1279954 27.4475816,12.3896867 26.8365242,12.3896867 L25.2833333,12.3896867 L25.2823,16.664 L28.4967174,15.6091397 C28.7519396,15.4856451 29.0622874,15.5857573 29.1898985,15.8327465 C29.3175096,16.0797358 29.2140604,16.3800723 28.9588381,16.5035669 L25.2823,17.782 L25.2822767,18.223021 L31.4833333,18.22302 C31.7686805,18.22302 32,18.4468776 32,18.72302 C32,18.9991624 31.7686805,19.22302 31.4833333,19.22302 L25.2823,19.223 L25.2823,19.664 L28.9588381,20.9424731 C29.1857023,21.0522461 29.2926471,21.301746 29.2239865,21.5293037 L29.1898985,21.6132935 C29.0764664,21.8328395 28.8186498,21.9363344 28.5835069,21.8698887 L28.4967174,21.8369003 L25.2823,20.781 L25.2833333,25.3896867 C25.2833333,26.4942562 24.3580551,27.3896867 23.2166667,27.3896867 L9.78333333,27.3896867 C8.64194485,27.3896867 7.71666667,26.4942562 7.71666667,25.3896867 L7.71563333,20.782 L4.50328258,21.8369003 C4.24806036,21.9603949 3.93771262,21.8602827 3.81010151,21.6132935 C3.6824904,21.3663042 3.78593964,21.0659677 4.04116186,20.9424731 L7.71563333,19.664 L7.71563333,19.223 L1.51666667,19.22302 C1.26302478,19.22302 1.05207135,19.0461448 1.00832419,18.8128956 L1,18.72302 C1,18.4775601 1.182771,18.2734116 1.42379518,18.2310757 L1.51666667,18.22302 L7.71563333,18.223 L7.71563333,17.781 L4.04116186,16.5035669 C3.81429767,16.3937939 3.70735286,16.144294 3.7760135,15.9167364 L3.81010151,15.8327465 C3.92353361,15.6132005 4.1813502,15.5097056 4.41649311,15.5761513 L4.50328258,15.6091397 L7.71563333,16.664 L7.71666667,12.3896867 L6.16347578,12.3896867 Z M10,16.2825219 C10,13.8354025 13.3109844,11.578127 16.5135699,14.1129108 C19.7153322,11.578127 23,13.8425079 23,16.2825219 C23,18.7225359 16.5135699,24.1428571 16.5135699,24.1428571 L16.0493945,23.7464464 C14.5603128,22.4543394 10,18.3301116 10,16.2825219 Z" id="logo-white-flattened"></path>
        </g>
    </g>
</svg>