<?xml version="1.0" encoding="UTF-8"?>
<svg width="53px" height="46px" viewBox="0 0 53 46" version="1.1" xmlns="http://www.w3.org/2000/svg" xmlns:xlink="http://www.w3.org/1999/xlink">
    <!-- Generator: Sketch 59.1 (86144) - https://sketch.com -->
    <title>logo-foreverHomes</title>
    <desc>Created with Sketch.</desc>
    <g id="logo-foreverHomes" stroke="none" stroke-width="1" fill="none" fill-rule="evenodd">
        <g id="final-logo-unflattened" transform="translate(1.000000, 0.904219)">
            <g id="whiskers" transform="translate(0.000000, 25.095781)" stroke="#000000" stroke-linecap="round" stroke-width="2">
                <g id="Group" transform="translate(44.500000, 5.000000) scale(-1, 1) translate(-44.500000, -5.000000) translate(38.000000, 0.000000)">
                    <line x1="12.691358" y1="2.42857143" x2="4.34567901" y2="0.142857143" id="Line-2"></line>
                    <line x1="12.1481481" y1="4.71428571" x2="0" y2="4.71428571" id="Line-2-Copy-2"></line>
                    <line x1="12.691358" y1="9.28571429" x2="4.34567901" y2="7" id="Line-2-Copy" transform="translate(8.518519, 8.142857) scale(1, -1) translate(-8.518519, -8.142857) "></line>
                </g>
                <g id="Group-Copy" transform="translate(-0.000000, 0.000000)">
                    <line x1="12.691358" y1="2.42857143" x2="4.34567901" y2="0.142857143" id="Line-2"></line>
                    <line x1="12.1481481" y1="4.71428571" x2="0" y2="4.71428571" id="Line-2-Copy-2"></line>
                    <line x1="12.691358" y1="9.28571429" x2="4.34567901" y2="7" id="Line-2-Copy" transform="translate(8.518519, 8.142857) scale(1, -1) translate(-8.518519, -8.142857) "></line>
                </g>
            </g>
            <path d="M26.5436966,0.179298666 L49.2123832,15.9608286 C49.665644,16.2763806 49.7772791,16.8996266 49.4617271,17.3528874 C49.274767,17.621438 48.9682466,17.7815299 48.6410258,17.7815299 L40.0862246,17.7814652 C40.1285341,17.943391 40.1510579,18.1133155 40.1510579,18.2885006 L40.1510579,41.3982595 C40.1510579,41.9505443 39.7033426,42.3982595 39.1510579,42.3982595 L12.7936204,42.3982595 C12.2413356,42.3982595 11.7936204,41.9505443 11.7936204,41.3982595 L11.7936204,18.2885006 C11.7936204,18.1133155 11.8161441,17.943391 11.8584537,17.7814652 L3.30365251,17.7815299 C2.75136776,17.7815299 2.30365251,17.3338147 2.30365251,16.7815299 C2.30365251,16.4543091 2.46374446,16.1477887 2.73229507,15.9608286 L25.4009817,0.179298666 C25.744376,-0.059766222 26.2003023,-0.059766222 26.5436966,0.179298666 Z M25.9943411,23.0517597 C20.8209337,18.9145944 15.4724204,22.5988226 15.4724204,26.5929059 C15.4724204,30.5869891 25.9943411,39.4222078 25.9943411,39.4222078 C25.9943411,39.4222078 36.4724204,30.575392 36.4724204,26.5929059 C36.4724204,22.6104197 31.1664186,18.9145944 25.9943411,23.0517597 Z" id="Logo-shape" fill="#000000"></path>
        </g>
        <path d="M27.5436966,1.08351795 L50.2123832,16.8650479 C50.665644,17.1805999 50.7772791,17.8038458 50.4617271,18.2571067 C50.274767,18.5256573 49.9682466,18.6857492 49.6410258,18.6857492 L41.0862246,18.6856844 C41.1285341,18.8476103 41.1510579,19.0175347 41.1510579,19.1927199 L41.151,26.8862193 L47.3901689,25.1783761 C47.9228371,25.0324889 48.4729149,25.3460369 48.618802,25.8787051 C48.7646892,26.4113733 48.4511412,26.9614511 47.918473,27.1073382 L41.151,28.9602193 L41.151,29.7142193 L52,29.7142857 C52.5522847,29.7142857 53,30.162001 53,30.7142857 C53,31.2665705 52.5522847,31.7142857 52,31.7142857 L41.151,31.7142193 L41.151,32.4672193 L47.918473,34.3212332 C48.4130935,34.4566999 48.7187787,34.9406778 48.643119,35.4356103 L48.618802,35.5498663 C48.4729149,36.0825345 47.9228371,36.3960825 47.3901689,36.2501953 L47.3901689,36.2501953 L41.151,34.5412193 L41.1510579,42.3024788 C41.1510579,42.8547636 40.7033426,43.3024788 40.1510579,43.3024788 L13.7936204,43.3024788 C13.2413356,43.3024788 12.7936204,42.8547636 12.7936204,42.3024788 L12.793,34.2822193 L5.60983105,36.2501953 C5.07716287,36.3960825 4.5270851,36.0825345 4.38119796,35.5498663 C4.23531082,35.0171981 4.5488588,34.4671204 5.08152697,34.3212332 L12.793,32.2092193 L12.793,31.7142193 L1,31.7142857 C0.487164161,31.7142857 0.0644928393,31.3282455 0.00672773133,30.8309068 L0,30.7142857 C0,30.162001 0.44771525,29.7142857 1,29.7142857 L1,29.7142857 L12.793,29.7142193 L12.793,29.2182193 L5.08152697,27.1073382 C4.58690652,26.9718716 4.28122135,26.4878936 4.35688102,25.9929611 L4.38119796,25.8787051 C4.5270851,25.3460369 5.07716287,25.0324889 5.60983105,25.1783761 L5.60983105,25.1783761 L12.793,27.1452193 L12.7936204,19.1927199 C12.7936204,19.0175347 12.8161441,18.8476103 12.8584537,18.6856844 L4.30365251,18.6857492 C3.75136776,18.6857492 3.30365251,18.238034 3.30365251,17.6857492 C3.30365251,17.3585283 3.46374446,17.052008 3.73229507,16.8650479 L13,10.4122193 L13,5 C13,4.44771525 13.4477153,4 14,4 L17,4 C17.5522847,4 18,4.44771525 18,5 L18,6.93121928 L26.4009817,1.08351795 C26.744376,0.844453061 27.2003023,0.844453061 27.5436966,1.08351795 Z M16.4724204,27.4971251 C16.4724204,31.4912084 26.9943411,40.3264271 26.9943411,40.3264271 L27.7930216,39.6327863 C30.2406857,37.47143 37.4724204,30.8056521 37.4724204,27.4971251 C37.4724204,23.514639 32.1664186,19.8188137 26.9943411,23.955979 C21.8209337,19.8188137 16.4724204,23.5030419 16.4724204,27.4971251 Z" id="final-logo-flattened" fill="#FFFFFF" fill-rule="nonzero"></path>
    </g>
</svg>