<?xml version="1.0" encoding="UTF-8"?>
<svg width="109px" height="109px" viewBox="0 0 109 109" version="1.1" xmlns="http://www.w3.org/2000/svg" xmlns:xlink="http://www.w3.org/1999/xlink">
    <!-- Generator: Sketch 59.1 (86144) - https://sketch.com -->
    <title>logo-foreverHomes-icon</title>
    <desc>Created with Sketch.</desc>
    <g id="logo-foreverHomes-icon" stroke="none" stroke-width="1" fill="none" fill-rule="evenodd">
        <path d="M56.1586191,13.3552289 L102.130538,44.6218075 C103.049747,45.2469834 103.276142,46.4817666 102.636205,47.379773 C102.257051,47.9118291 101.635431,48.2290054 100.971829,48.2290054 L83.6227596,48.2288771 C83.708563,48.5496867 83.754241,48.8863433 83.754241,49.2334225 L83.754,64.259 L96.4335968,61.0667637 C97.5147716,60.794473 98.6312833,61.3796939 98.9273954,62.3738911 C99.2235075,63.3680884 98.5870885,64.3947797 97.5059136,64.6670704 L83.754,68.13 L83.754,70 L105.950262,70 C107.082301,70 108,70.8954305 108,72 C108,73.1045695 107.082301,74 105.950262,74 L83.754,74 L83.754,75.869 L97.5059136,79.3329296 C98.535604,79.5922541 99.1618877,80.5358422 98.9634061,81.4839446 L98.9273954,81.6261089 C98.6312833,82.6203061 97.5147716,83.205527 96.4335968,82.9332363 L96.4335968,82.9332363 L83.754,79.74 L83.754241,95.0187866 C83.754241,96.1129805 82.8462779,97 81.7262488,97 L28.2735725,97 C27.1535434,97 26.2455804,96.1129805 26.2455804,95.0187866 L26.245,79.488 L12.5664032,82.9332363 C11.4852284,83.205527 10.3687167,82.6203061 10.0726046,81.6261089 C9.77649245,80.6319116 10.4129115,79.6052203 11.4940864,79.3329296 L26.245,75.617 L26.245,74 L3.04973822,74 C1.96915539,74 1.08387004,73.1841222 1.00562216,72.1492623 L1,72 C1,70.8954305 1.91769906,70 3.04973822,70 L3.04973822,70 L26.245,70 L26.245,68.382 L11.4940864,64.6670704 C10.464396,64.4077459 9.83811231,63.4641578 10.0365939,62.5160554 L10.0726046,62.3738911 C10.3687167,61.3796939 11.4852284,60.794473 12.5664032,61.0667637 L12.5664032,61.0667637 L26.245,64.511 L26.2455804,49.2334225 C26.2455804,48.8863433 26.2912583,48.5496867 26.3770617,48.2288771 L9.02799215,48.2290054 C7.90796301,48.2290054 7,47.341986 7,46.247792 C7,45.5994976 7.32466522,44.9922154 7.86928375,44.6218075 L27,31.61 L27,20 C27,19.4477153 27.4477153,19 28,19 L36,19 C36.5522847,19 37,19.4477153 37,20 L37,24.809 L53.8412023,13.3552289 C54.5376032,12.8815904 55.4622182,12.8815904 56.1586191,13.3552289 Z M33.706158,65.6862215 C33.706158,73.5993528 55.0445305,91.1038064 55.0445305,91.1038064 L56.6642483,89.7295561 C61.6280918,85.4474479 76.2939931,72.2411194 76.2939931,65.6862215 C76.2939931,57.7960666 65.5334631,50.4738479 55.0445305,58.6704553 C44.5529008,50.4738479 33.706158,57.7730902 33.706158,65.6862215 Z" id="final-logo-flattened" stroke="#696868" fill="#FFFFFF" fill-rule="nonzero"></path>
    </g>
</svg>